<mxfile host="app.diagrams.net" agent="Mozilla/5.0 (Windows NT 10.0; Win64; x64) AppleWebKit/537.36 (KHTML, like Gecko) Chrome/133.0.0.0 Safari/537.36" version="26.0.16">
  <diagram name="PÃ¡gina-1" id="T31DJXkOsLI2JNF9AIq3">
    <mxGraphModel dx="978" dy="565" grid="1" gridSize="10" guides="1" tooltips="1" connect="1" arrows="1" fold="1" page="1" pageScale="1" pageWidth="3300" pageHeight="4681" math="0" shadow="0">
      <root>
        <mxCell id="0" />
        <mxCell id="1" parent="0" />
        <mxCell id="rN6AKWZ-cua0fZOH0Yyw-1" value="USER" style="rounded=0;whiteSpace=wrap;html=1;" parent="1" vertex="1">
          <mxGeometry x="710" y="251" width="120" height="60" as="geometry" />
        </mxCell>
        <mxCell id="rN6AKWZ-cua0fZOH0Yyw-2" value="&lt;u&gt;user_id&lt;/u&gt;" style="ellipse;whiteSpace=wrap;html=1;" parent="1" vertex="1">
          <mxGeometry x="840" y="210" width="80" height="40" as="geometry" />
        </mxCell>
        <mxCell id="rN6AKWZ-cua0fZOH0Yyw-3" value="&lt;span&gt;username&lt;/span&gt;" style="ellipse;whiteSpace=wrap;html=1;fontStyle=0" parent="1" vertex="1">
          <mxGeometry x="760" y="175" width="80" height="40" as="geometry" />
        </mxCell>
        <mxCell id="rN6AKWZ-cua0fZOH0Yyw-4" value="&lt;span&gt;password_validation&lt;/span&gt;" style="ellipse;whiteSpace=wrap;html=1;fontStyle=0" parent="1" vertex="1">
          <mxGeometry x="630" y="180" width="120" height="50" as="geometry" />
        </mxCell>
        <mxCell id="rN6AKWZ-cua0fZOH0Yyw-5" value="role" style="ellipse;whiteSpace=wrap;html=1;fontStyle=0" parent="1" vertex="1">
          <mxGeometry x="600" y="266.75" width="70" height="27.75" as="geometry" />
        </mxCell>
        <mxCell id="rN6AKWZ-cua0fZOH0Yyw-6" value="" style="endArrow=none;html=1;rounded=0;" parent="1" source="rN6AKWZ-cua0fZOH0Yyw-1" target="rN6AKWZ-cua0fZOH0Yyw-2" edge="1">
          <mxGeometry width="50" height="50" relative="1" as="geometry">
            <mxPoint x="790" y="370" as="sourcePoint" />
            <mxPoint x="840" y="320" as="targetPoint" />
          </mxGeometry>
        </mxCell>
        <mxCell id="rN6AKWZ-cua0fZOH0Yyw-7" value="" style="endArrow=none;html=1;rounded=0;" parent="1" source="rN6AKWZ-cua0fZOH0Yyw-1" target="rN6AKWZ-cua0fZOH0Yyw-3" edge="1">
          <mxGeometry width="50" height="50" relative="1" as="geometry">
            <mxPoint x="710" y="240" as="sourcePoint" />
            <mxPoint x="752" y="206" as="targetPoint" />
          </mxGeometry>
        </mxCell>
        <mxCell id="rN6AKWZ-cua0fZOH0Yyw-8" value="" style="endArrow=none;html=1;rounded=0;" parent="1" source="rN6AKWZ-cua0fZOH0Yyw-1" target="rN6AKWZ-cua0fZOH0Yyw-4" edge="1">
          <mxGeometry width="50" height="50" relative="1" as="geometry">
            <mxPoint x="660" y="281" as="sourcePoint" />
            <mxPoint x="665" y="220" as="targetPoint" />
          </mxGeometry>
        </mxCell>
        <mxCell id="rN6AKWZ-cua0fZOH0Yyw-9" value="" style="endArrow=none;html=1;rounded=0;" parent="1" source="rN6AKWZ-cua0fZOH0Yyw-1" target="rN6AKWZ-cua0fZOH0Yyw-5" edge="1">
          <mxGeometry width="50" height="50" relative="1" as="geometry">
            <mxPoint x="668" y="298" as="sourcePoint" />
            <mxPoint x="620" y="264" as="targetPoint" />
          </mxGeometry>
        </mxCell>
        <mxCell id="rN6AKWZ-cua0fZOH0Yyw-10" value="Only Professor and Administrator can create app invites" style="text;html=1;align=left;verticalAlign=middle;whiteSpace=wrap;rounded=0;" parent="1" vertex="1">
          <mxGeometry x="850" y="311" width="200" height="30" as="geometry" />
        </mxCell>
        <mxCell id="rN6AKWZ-cua0fZOH0Yyw-11" value="USER" style="rounded=0;whiteSpace=wrap;html=1;" parent="1" vertex="1">
          <mxGeometry x="1060" y="251" width="120" height="60" as="geometry" />
        </mxCell>
        <mxCell id="rN6AKWZ-cua0fZOH0Yyw-12" value="APP_INVITE" style="rounded=0;whiteSpace=wrap;html=1;" parent="1" vertex="1">
          <mxGeometry x="1065" y="255.5" width="110" height="51" as="geometry" />
        </mxCell>
        <mxCell id="rN6AKWZ-cua0fZOH0Yyw-13" value="creates" style="rhombus;whiteSpace=wrap;html=1;" parent="1" vertex="1">
          <mxGeometry x="915" y="255.5" width="60" height="50.25" as="geometry" />
        </mxCell>
        <mxCell id="rN6AKWZ-cua0fZOH0Yyw-15" value="1" style="endArrow=none;html=1;rounded=0;exitX=1;exitY=0.5;exitDx=0;exitDy=0;entryX=0;entryY=0.5;entryDx=0;entryDy=0;" parent="1" target="rN6AKWZ-cua0fZOH0Yyw-13" edge="1">
          <mxGeometry x="-0.7778" y="11" width="50" height="50" relative="1" as="geometry">
            <mxPoint x="830" y="280.71" as="sourcePoint" />
            <mxPoint x="920" y="281" as="targetPoint" />
            <mxPoint as="offset" />
          </mxGeometry>
        </mxCell>
        <mxCell id="rN6AKWZ-cua0fZOH0Yyw-16" value="N" style="shape=link;html=1;rounded=0;exitX=1;exitY=0.5;exitDx=0;exitDy=0;entryX=0;entryY=0.5;entryDx=0;entryDy=0;" parent="1" source="rN6AKWZ-cua0fZOH0Yyw-13" target="rN6AKWZ-cua0fZOH0Yyw-11" edge="1">
          <mxGeometry x="0.7778" y="11" width="100" relative="1" as="geometry">
            <mxPoint x="970" y="281" as="sourcePoint" />
            <mxPoint x="1070" y="280.65999999999997" as="targetPoint" />
            <mxPoint as="offset" />
          </mxGeometry>
        </mxCell>
        <mxCell id="rN6AKWZ-cua0fZOH0Yyw-18" value="creates" style="rhombus;whiteSpace=wrap;html=1;" parent="1" vertex="1">
          <mxGeometry x="921.25" y="260.94" width="47.5" height="39.37" as="geometry" />
        </mxCell>
        <mxCell id="rN6AKWZ-cua0fZOH0Yyw-20" value="&lt;span&gt;invite_id&lt;/span&gt;" style="ellipse;whiteSpace=wrap;html=1;fontStyle=0" parent="1" vertex="1">
          <mxGeometry x="1010" y="180" width="80" height="40" as="geometry" />
        </mxCell>
        <mxCell id="rN6AKWZ-cua0fZOH0Yyw-21" value="" style="endArrow=none;dashed=1;html=1;rounded=0;" parent="1" edge="1">
          <mxGeometry width="50" height="50" relative="1" as="geometry">
            <mxPoint x="1076" y="210" as="sourcePoint" />
            <mxPoint x="1024" y="210" as="targetPoint" />
          </mxGeometry>
        </mxCell>
        <mxCell id="rN6AKWZ-cua0fZOH0Yyw-22" value="" style="endArrow=none;html=1;rounded=0;exitX=0.25;exitY=0;exitDx=0;exitDy=0;" parent="1" source="rN6AKWZ-cua0fZOH0Yyw-11" target="rN6AKWZ-cua0fZOH0Yyw-20" edge="1">
          <mxGeometry width="50" height="50" relative="1" as="geometry">
            <mxPoint x="1130" y="250" as="sourcePoint" />
            <mxPoint x="910" y="250" as="targetPoint" />
          </mxGeometry>
        </mxCell>
        <mxCell id="rN6AKWZ-cua0fZOH0Yyw-23" value="&lt;span&gt;created_at&lt;/span&gt;" style="ellipse;whiteSpace=wrap;html=1;fontStyle=0" parent="1" vertex="1">
          <mxGeometry x="1140" y="175" width="80" height="40" as="geometry" />
        </mxCell>
        <mxCell id="rN6AKWZ-cua0fZOH0Yyw-24" value="&lt;span&gt;last_used_at&lt;/span&gt;" style="ellipse;whiteSpace=wrap;html=1;fontStyle=0" parent="1" vertex="1">
          <mxGeometry x="1220" y="230" width="80" height="40" as="geometry" />
        </mxCell>
        <mxCell id="rN6AKWZ-cua0fZOH0Yyw-25" value="" style="endArrow=none;html=1;rounded=0;exitX=1;exitY=0.5;exitDx=0;exitDy=0;" parent="1" source="rN6AKWZ-cua0fZOH0Yyw-11" target="rN6AKWZ-cua0fZOH0Yyw-24" edge="1">
          <mxGeometry width="50" height="50" relative="1" as="geometry">
            <mxPoint x="1210" y="341" as="sourcePoint" />
            <mxPoint x="1260" y="291" as="targetPoint" />
          </mxGeometry>
        </mxCell>
        <mxCell id="rN6AKWZ-cua0fZOH0Yyw-26" value="" style="endArrow=none;html=1;rounded=0;exitX=0.706;exitY=-0.025;exitDx=0;exitDy=0;exitPerimeter=0;" parent="1" source="rN6AKWZ-cua0fZOH0Yyw-11" target="rN6AKWZ-cua0fZOH0Yyw-23" edge="1">
          <mxGeometry width="50" height="50" relative="1" as="geometry">
            <mxPoint x="1060" y="330" as="sourcePoint" />
            <mxPoint x="1110" y="280" as="targetPoint" />
          </mxGeometry>
        </mxCell>
        <mxCell id="rN6AKWZ-cua0fZOH0Yyw-30" value="creates" style="rhombus;whiteSpace=wrap;html=1;" parent="1" vertex="1">
          <mxGeometry x="740" y="360" width="60" height="50.25" as="geometry" />
        </mxCell>
        <mxCell id="rN6AKWZ-cua0fZOH0Yyw-31" value="creates" style="rhombus;whiteSpace=wrap;html=1;" parent="1" vertex="1">
          <mxGeometry x="746.25" y="365.44" width="47.5" height="39.37" as="geometry" />
        </mxCell>
        <mxCell id="rN6AKWZ-cua0fZOH0Yyw-32" value="USER" style="rounded=0;whiteSpace=wrap;html=1;" parent="1" vertex="1">
          <mxGeometry x="710" y="470" width="120" height="60" as="geometry" />
        </mxCell>
        <mxCell id="rN6AKWZ-cua0fZOH0Yyw-33" value="LABORATORIO" style="rounded=0;whiteSpace=wrap;html=1;" parent="1" vertex="1">
          <mxGeometry x="715" y="474.5" width="110" height="51" as="geometry" />
        </mxCell>
        <mxCell id="rN6AKWZ-cua0fZOH0Yyw-34" value="&lt;span&gt;lab_id&lt;/span&gt;" style="ellipse;whiteSpace=wrap;html=1;fontStyle=0" parent="1" vertex="1">
          <mxGeometry x="580" y="480" width="80" height="40" as="geometry" />
        </mxCell>
        <mxCell id="rN6AKWZ-cua0fZOH0Yyw-35" value="" style="endArrow=none;dashed=1;html=1;rounded=0;" parent="1" edge="1">
          <mxGeometry width="50" height="50" relative="1" as="geometry">
            <mxPoint x="646" y="510" as="sourcePoint" />
            <mxPoint x="594" y="510" as="targetPoint" />
          </mxGeometry>
        </mxCell>
        <mxCell id="rN6AKWZ-cua0fZOH0Yyw-36" value="" style="endArrow=none;html=1;rounded=0;exitX=0;exitY=0.5;exitDx=0;exitDy=0;" parent="1" source="rN6AKWZ-cua0fZOH0Yyw-32" target="rN6AKWZ-cua0fZOH0Yyw-34" edge="1">
          <mxGeometry width="50" height="50" relative="1" as="geometry">
            <mxPoint x="750" y="490" as="sourcePoint" />
            <mxPoint x="800" y="440" as="targetPoint" />
          </mxGeometry>
        </mxCell>
        <mxCell id="rN6AKWZ-cua0fZOH0Yyw-37" value="1" style="endArrow=none;html=1;rounded=0;exitX=0.5;exitY=0;exitDx=0;exitDy=0;" parent="1" source="rN6AKWZ-cua0fZOH0Yyw-30" target="rN6AKWZ-cua0fZOH0Yyw-1" edge="1">
          <mxGeometry x="0.6327" y="-10" width="50" height="50" relative="1" as="geometry">
            <mxPoint x="750" y="420" as="sourcePoint" />
            <mxPoint x="800" y="370" as="targetPoint" />
            <mxPoint as="offset" />
          </mxGeometry>
        </mxCell>
        <mxCell id="rN6AKWZ-cua0fZOH0Yyw-38" value="N" style="shape=link;html=1;rounded=0;exitX=0.5;exitY=1;exitDx=0;exitDy=0;entryX=0.5;entryY=0;entryDx=0;entryDy=0;" parent="1" source="rN6AKWZ-cua0fZOH0Yyw-30" target="rN6AKWZ-cua0fZOH0Yyw-32" edge="1">
          <mxGeometry x="0.6653" y="10" width="100" relative="1" as="geometry">
            <mxPoint x="740" y="430" as="sourcePoint" />
            <mxPoint x="825" y="430" as="targetPoint" />
            <mxPoint as="offset" />
          </mxGeometry>
        </mxCell>
        <mxCell id="rN6AKWZ-cua0fZOH0Yyw-40" value="&lt;span&gt;lab_name&lt;/span&gt;" style="ellipse;whiteSpace=wrap;html=1;fontStyle=0" parent="1" vertex="1">
          <mxGeometry x="635" y="550" width="80" height="40" as="geometry" />
        </mxCell>
        <mxCell id="rN6AKWZ-cua0fZOH0Yyw-41" value="" style="endArrow=none;html=1;rounded=0;entryX=0.25;entryY=1;entryDx=0;entryDy=0;" parent="1" source="rN6AKWZ-cua0fZOH0Yyw-40" target="rN6AKWZ-cua0fZOH0Yyw-32" edge="1">
          <mxGeometry width="50" height="50" relative="1" as="geometry">
            <mxPoint x="890" y="490" as="sourcePoint" />
            <mxPoint x="940" y="440" as="targetPoint" />
          </mxGeometry>
        </mxCell>
      </root>
    </mxGraphModel>
  </diagram>
</mxfile>
